<svg xmlns="http://www.w3.org/2000/svg" xmlns:xlink="http://www.w3.org/1999/xlink" width="1080" zoomAndPan="magnify" viewBox="0 0 810 809.999993" height="1080" preserveAspectRatio="xMidYMid meet" version="1.0"><defs><clipPath id="6f09655f95"><path d="M 12 0 L 810 0 L 810 187.5 L 12 187.5 Z M 12 0 " clip-rule="nonzero"/></clipPath><clipPath id="2eb9da91fd"><path d="M 0 0 L 798 0 L 798 187.5 L 0 187.5 Z M 0 0 " clip-rule="nonzero"/></clipPath></defs><path fill="#cf9500" d="M 741.148438 0.0625 C 724.546875 52.558594 690.324219 93.4375 644.921875 122.078125 C 639.050781 125.785156 632.992188 129.292969 626.746094 132.609375 C 542.820312 176.949219 427.484375 183.929688 314.605469 150.292969 C 309.015625 148.621094 303.425781 147.109375 297.835938 145.746094 C 262.480469 137.070312 227.328125 134.1875 193.582031 135.21875 C 140.828125 136.789062 91.523438 147.863281 50.382812 161.179688 C 31.753906 167.148438 14.832031 173.613281 0 179.878906 L 0 0.0625 Z M 741.148438 0.0625 " fill-opacity="1" fill-rule="nonzero"/><g clip-path="url(#6f09655f95)"><path fill="#aa7a00" d="M 810 0.0625 L 810 187.226562 C 810 187.226562 745.304688 146.726562 653.671875 124.152344 C 650.785156 123.441406 647.875 122.75 644.929688 122.078125 C 581.132812 107.5 505.300781 102.097656 429.46875 124.6875 C 421.320312 127.117188 413.160156 129.335938 404.992188 131.335938 C 369.796875 140.058594 334.078125 144.851562 297.828125 145.714844 C 261.484375 146.523438 226.3125 142.9375 193.574219 135.183594 C 180.953125 132.207031 168.539062 128.527344 156.328125 124.152344 C 91.722656 100.90625 40.023438 59.191406 12.8125 0.0625 Z M 810 0.0625 " fill-opacity="1" fill-rule="nonzero"/></g><g clip-path="url(#2eb9da91fd)"><path fill="#efbf55" d="M 797.1875 0.0625 C 769.976562 59.191406 718.277344 100.90625 653.671875 124.152344 C 644.921875 127.304688 635.945312 130.113281 626.746094 132.578125 C 560.113281 150.460938 482.566406 150.398438 405.007812 131.335938 C 396.84375 129.339844 388.6875 127.121094 380.539062 124.6875 C 301.238281 101.058594 221.90625 108.007812 156.355469 124.152344 C 119.882812 133.234375 84.546875 145.5625 50.339844 161.136719 C 18.742188 175.492188 0 187.226562 0 187.226562 L 0 0.0625 Z M 797.1875 0.0625 " fill-opacity="1" fill-rule="nonzero"/></g></svg>