<svg width="195" height="182" viewBox="0 0 195 182" fill="none" xmlns="http://www.w3.org/2000/svg">
<path d="M193.156 89.4536C193.156 181.211 129.331 181.211 81.101 181.211C32.8711 181.212 9.9397 157.377 9.93021 124.537C9.92071 91.6972 41.7699 65.0659 81.0673 65.0542C159.64 124.537 202.24 49.3594 193.156 89.4536Z" fill="url(#paint0_linear_226_329)"/>
<ellipse cx="43.9787" cy="46.0986" rx="43.9787" ry="46.0986" transform="matrix(1 -0.000297022 0.000289086 1 26.2012 0.52063)" fill="url(#paint1_linear_226_329)"/>
<path d="M0.516018 36.5168L1.7689 35.577L5.84097 35.577L12.7322 37.1431L26.8278 38.083L26.5146 42.155L26.2014 46.8535L26.8278 54.3713L28.0808 59.6962L7.40721 54.3713L2.08222 45.9138L0.202754 40.5887L0.516018 36.5168Z" fill="url(#paint2_linear_226_329)"/>
<path d="M3.62474 66.0678L4.90012 66.6621L8.97334 66.8999L17.1175 67.5264L24.9484 69.4058L34.3454 73.4779L29.4913 63.7675L28.0807 59.7824L24.0086 58.4429L17.7438 56.8769L9.2865 54.6843L4.96097 59.7824L3.21218 63.3684L3.62474 66.0678Z" fill="url(#paint3_linear_226_329)"/>
<defs>
<linearGradient id="paint0_linear_226_329" x1="102.136" y1="65.0479" x2="102.171" y2="181.206" gradientUnits="userSpaceOnUse">
<stop stop-color="#000AFF"/>
<stop offset="0.33" stop-color="#0008D7"/>
<stop offset="0.87" stop-color="#00069D"/>
</linearGradient>
<linearGradient id="paint1_linear_226_329" x1="43.9787" y1="0" x2="43.9787" y2="92.1972" gradientUnits="userSpaceOnUse">
<stop stop-color="#000AFF"/>
<stop offset="0.33" stop-color="#0008D7"/>
<stop offset="0.87" stop-color="#00069D"/>
</linearGradient>
<linearGradient id="paint2_linear_226_329" x1="0.309248" y1="47.8509" x2="27.9012" y2="47.4463" gradientUnits="userSpaceOnUse">
<stop stop-color="#000AFF"/>
<stop offset="0.33" stop-color="#0008D7"/>
<stop offset="0.87" stop-color="#00069D"/>
</linearGradient>
<linearGradient id="paint3_linear_226_329" x1="3.22663" y1="64.3537" x2="34.205" y2="63.8994" gradientUnits="userSpaceOnUse">
<stop stop-color="#000AFF"/>
<stop offset="0.33" stop-color="#0008D7"/>
<stop offset="0.87" stop-color="#00069D"/>
</linearGradient>
</defs>
</svg>
